Coordinates
version=1
nRows=17
nColumns=63
inDegrees=yes

Units are S.I. units (second, meters, Newtons, ...)
If the header above contains a line with 'inDegrees', this indicates whether rotational values are in degrees (yes) or radians (no).

endheader
time	pelvis_tilt	pelvis_list	pelvis_rotation	pelvis_tx	pelvis_ty	pelvis_tz	hip_flexion_r	hip_adduction_r	hip_rotation_r	knee_angle_r	knee_angle_r_beta	ankle_angle_r	subtalar_angle_r	mtp_angle_r	hip_flexion_l	hip_adduction_l	hip_rotation_l	knee_angle_l	knee_angle_l_beta	ankle_angle_l	subtalar_angle_l	mtp_angle_l	L5_S1_Flex_Ext	L5_S1_Lat_Bending	L5_S1_axial_rotation	L4_L5_Flex_Ext	L4_L5_Lat_Bending	L4_L5_axial_rotation	L3_L4_Flex_Ext	L3_L4_Lat_Bending	L3_L4_axial_rotation	L2_L3_Flex_Ext	L2_L3_Lat_Bending	L2_L3_axial_rotation	L1_L2_Flex_Ext	L1_L2_Lat_Bending	L1_L2_axial_rotation	L1_T12_Flex_Ext	L1_T12_Lat_Bending	L1_T12_axial_rotation	Abs_r3	Abs_r2	Abs_r1	Abs_t1	Abs_t2	neck_flexion	neck_bending	neck_rotation	arm_flex_r	arm_add_r	arm_rot_r	elbow_flex_r	pro_sup_r	wrist_flex_r	wrist_dev_r	arm_flex_l	arm_add_l	arm_rot_l	elbow_flex_l	pro_sup_l	wrist_flex_l	wrist_dev_l
7.166667	3.107939	-5.201625	98.365680	0.166345	0.506235	0.988353	5.918121	3.427507	-15.014092	15.033877	0.262391	42.679160	15.100811	0.000000	3.836223	-1.279358	-5.345386	11.434732	0.199574	39.557623	7.806912	0.000000	-0.009674	0.733342	-0.724872	-0.017966	0.975344	-0.770176	-0.015894	1.783047	-0.770176	-0.011057	1.783047	-0.634263	-0.008984	1.495430	-0.588958	-0.005528	1.135946	-0.543654	-0.069102	8.295707	-4.031520	0.000000	0.000000	10.946594	-13.947711	18.047680	6.977804	-13.385667	-54.454807	80.481372	72.275379	-5.379994	23.022113	-18.684232	-5.731158	-37.478568	116.392156	52.159875	-28.112449	2.549207
7.183333	3.019567	-5.170471	98.350315	0.166478	0.506332	0.988398	5.899653	3.349517	-15.014391	15.014227	0.262048	42.764218	15.230898	0.000000	3.841660	-1.193125	-5.298535	11.440202	0.199669	39.735914	7.550843	0.000000	-0.016022	0.722374	-0.769728	-0.029755	0.960757	-0.817836	-0.026323	1.756379	-0.817836	-0.018312	1.756379	-0.673512	-0.014878	1.473064	-0.625404	-0.009155	1.118957	-0.577296	-0.114444	8.171634	-4.280997	0.000000	0.000000	10.601660	-13.726209	18.202335	7.225774	-13.202541	-54.302445	79.872008	73.655694	-4.569433	22.204081	-18.868843	-5.844840	-37.416141	116.407013	50.087906	-27.743742	1.280911
7.200000	2.921434	-5.138943	98.332973	0.166627	0.506470	0.988424	5.875742	3.265430	-14.984570	14.999054	0.261783	42.825412	15.302393	0.000000	3.844958	-1.094594	-5.218497	11.436239	0.199600	39.895724	7.245509	0.000000	-0.022674	0.710398	-0.820261	-0.042107	0.944829	-0.871527	-0.037251	1.727262	-0.871527	-0.025914	1.727262	-0.717728	-0.021055	1.448644	-0.666462	-0.012956	1.100407	-0.615196	-0.161956	8.036165	-4.562045	0.000000	0.000000	10.193072	-13.473869	18.407957	7.480940	-12.956491	-54.156146	79.265526	75.288685	-3.713003	21.452079	-19.086304	-5.934810	-37.247276	116.442150	46.983048	-27.295049	-0.565178
7.216667	2.817821	-5.108270	98.309577	0.166768	0.506641	0.988442	5.846512	3.171878	-14.965020	14.991378	0.261649	42.857524	15.359582	0.000000	3.847994	-0.983886	-5.078717	11.422368	0.199358	40.030282	6.873240	0.000000	-0.029480	0.698044	-0.864322	-0.054746	0.928398	-0.918343	-0.048432	1.697224	-0.918343	-0.033692	1.697224	-0.756282	-0.027375	1.423451	-0.702262	-0.016845	1.081270	-0.648242	-0.210569	7.896412	-4.807102	0.000000	0.000000	9.760678	-13.225042	18.576138	7.696121	-12.677303	-54.057709	78.765406	77.096355	-3.029252	20.992749	-19.268661	-5.991769	-36.987168	116.459577	43.504210	-26.832257	-2.578516
7.233333	2.714037	-5.071291	98.286884	0.166879	0.506865	0.988492	5.803619	3.071834	-14.986844	14.986307	0.261560	42.852411	15.428994	0.000000	3.848051	-0.863777	-4.829077	11.399988	0.198967	40.121095	6.404717	0.000000	-0.037234	0.686205	-0.901830	-0.069147	0.912652	-0.958194	-0.061171	1.668438	-0.958194	-0.042555	1.668438	-0.789101	-0.034575	1.399309	-0.732737	-0.021275	1.062931	-0.676372	-0.265958	7.762485	-5.015705	0.000000	0.000000	9.310625	-12.986471	18.706932	7.878926	-12.387424	-53.991831	78.339617	79.005796	-2.510895	20.685010	-19.389110	-6.009664	-36.663406	116.444602	39.840117	-26.347302	-4.620863
7.250000	2.602558	-5.042066	98.239886	0.167010	0.507081	0.988549	5.770826	2.957720	-15.007669	15.003597	0.261862	42.829768	15.494883	0.000000	3.849700	-0.734044	-4.584565	11.362803	0.198318	40.188363	5.959291	0.000000	-0.044242	0.674435	-0.924513	-0.082161	0.896999	-0.982295	-0.072685	1.639822	-0.982295	-0.050564	1.639822	-0.808949	-0.041083	1.375309	-0.751167	-0.025280	1.044701	-0.693385	-0.316014	7.629349	-5.141863	0.000000	0.000000	8.979642	-12.827542	18.814192	8.013764	-12.103528	-53.988620	78.062354	80.908104	-2.247642	20.774115	-19.448313	-6.035927	-36.263719	116.390457	36.180125	-25.922892	-6.620012
7.266667	2.500198	-5.009079	98.205561	0.167089	0.507305	0.988630	5.733404	2.843262	-15.084132	15.030303	0.262328	42.794146	15.592726	0.000000	3.848117	-0.611505	-4.305928	11.319713	0.197566	40.229592	5.549383	0.000000	-0.050396	0.664732	-0.940444	-0.093590	0.884094	-0.999221	-0.082795	1.616229	-0.999221	-0.057597	1.616229	-0.822888	-0.046797	1.355521	-0.764111	-0.028796	1.029670	-0.705333	-0.359970	7.519581	-5.230466	0.000000	0.000000	8.749896	-12.733463	18.902469	8.108250	-11.869485	-53.967317	77.833786	82.453920	-2.215358	20.944318	-19.416386	-6.049049	-35.842923	116.281866	32.749744	-25.514161	-8.406826
7.283333	2.412591	-4.963306	98.155622	0.167147	0.507540	0.988726	5.689110	2.748981	-15.107330	15.065946	0.262950	42.740074	15.629712	0.000000	3.826488	-0.512573	-4.117427	11.271455	0.196724	40.252402	5.278336	0.000000	-0.056719	0.658531	-0.935133	-0.105333	0.875846	-0.993578	-0.093184	1.601152	-0.993578	-0.064824	1.601152	-0.818241	-0.052670	1.342877	-0.759795	-0.032409	1.020065	-0.701349	-0.405140	7.449435	-5.200927	0.000000	0.000000	8.659136	-12.803848	18.922099	8.156706	-11.685447	-54.054045	77.703110	83.594519	-2.367276	21.382992	-19.232048	-6.080092	-35.430848	116.097273	30.543393	-25.280768	-9.284330
7.300000	2.346169	-4.917158	98.123462	0.167144	0.507749	0.988828	5.661407	2.677362	-15.082491	15.126425	0.264006	42.683955	15.579399	0.000000	3.803053	-0.435231	-3.916921	11.228300	0.195971	40.259419	5.069847	0.000000	-0.060860	0.655923	-0.926301	-0.113022	0.872378	-0.984195	-0.099986	1.594811	-0.984195	-0.069556	1.594811	-0.810514	-0.056514	1.337558	-0.752620	-0.034775	1.016025	-0.694726	-0.434714	7.419933	-5.151811	0.000000	0.000000	8.684047	-12.938237	18.988143	8.190749	-11.571124	-54.086914	77.555086	83.923571	-2.670547	21.704710	-18.946499	-6.112556	-35.059004	115.856342	29.032168	-25.128184	-9.673643
7.316667	2.296948	-4.862134	98.116392	0.167079	0.507960	0.988965	5.628847	2.616502	-15.112085	15.187896	0.265079	42.640246	15.574804	0.000000	3.771382	-0.377133	-3.745543	11.195312	0.195395	40.229626	4.935036	0.000000	-0.065077	0.656875	-0.909393	-0.120854	0.873644	-0.966231	-0.106915	1.597126	-0.966231	-0.074376	1.597126	-0.795719	-0.060430	1.339500	-0.738882	-0.037185	1.017500	-0.682045	-0.464837	7.430702	-5.057774	0.000000	0.000000	8.888067	-13.252172	19.046404	8.210156	-11.526474	-54.147725	77.390689	83.598786	-2.911779	21.927173	-18.517525	-6.163732	-34.830009	115.567684	29.504741	-24.971318	-8.659863
7.333333	2.267932	-4.807741	98.121301	0.166975	0.508151	0.989106	5.604944	2.578071	-15.115357	15.251795	0.266194	42.611092	15.532454	0.000000	3.734513	-0.340392	-3.593784	11.165262	0.194871	40.184500	4.859622	0.000000	-0.067595	0.660845	-0.883967	-0.125530	0.878924	-0.939215	-0.111052	1.606779	-0.939215	-0.077254	1.606779	-0.773471	-0.062769	1.347595	-0.718223	-0.038624	1.023649	-0.662975	-0.482823	7.475611	-4.916358	0.000000	0.000000	9.158530	-13.594504	19.128449	8.218083	-11.555079	-54.196109	77.216366	82.425690	-3.229466	22.060385	-17.999512	-6.210446	-34.693867	115.238147	31.146014	-24.859785	-6.879897
7.350000	2.256249	-4.753375	98.120884	0.166860	0.508342	0.989275	5.583042	2.562788	-15.081440	15.302694	0.267082	42.583460	15.460832	0.000000	3.692710	-0.321543	-3.468746	11.138992	0.194412	40.136261	4.819628	0.000000	-0.068660	0.666327	-0.847146	-0.127509	0.886215	-0.900092	-0.112802	1.620108	-0.900092	-0.078472	1.620108	-0.741253	-0.063758	1.358774	-0.688306	-0.039233	1.032141	-0.635359	-0.490434	7.537627	-4.711571	0.000000	0.000000	9.412686	-13.912794	19.169719	8.237589	-11.641090	-54.248548	76.988178	80.481115	-3.570822	22.020316	-17.401959	-6.207735	-34.673986	114.882087	33.955074	-24.818853	-4.418853
7.366667	2.254732	-4.699815	98.108001	0.166756	0.508527	0.989425	5.562855	2.561191	-15.016439	15.351334	0.267931	42.562551	15.371878	0.000000	3.640665	-0.313620	-3.367995	11.105742	0.193832	40.111458	4.803604	0.000000	-0.069456	0.672517	-0.804773	-0.128987	0.894448	-0.855071	-0.114110	1.635158	-0.855071	-0.079381	1.635158	-0.704176	-0.064497	1.371397	-0.653878	-0.039687	1.041729	-0.603579	-0.496118	7.607647	-4.475904	0.000000	0.000000	9.648585	-14.211175	19.205890	8.268263	-11.773336	-54.274147	76.685963	77.583775	-3.653637	21.732602	-16.818399	-6.155898	-34.748159	114.535417	37.207195	-24.928084	-1.782422
7.383333	2.252450	-4.651266	98.111258	0.166629	0.508708	0.989565	5.539420	2.556741	-14.973605	15.390808	0.268620	42.547187	15.292393	0.000000	3.592532	-0.301756	-3.245030	11.074770	0.193291	40.115253	4.786546	0.000000	-0.069022	0.677864	-0.765499	-0.128181	0.901559	-0.813343	-0.113397	1.648159	-0.813343	-0.078885	1.648159	-0.669812	-0.064094	1.382300	-0.621968	-0.039439	1.050011	-0.574124	-0.493019	7.668134	-4.257475	0.000000	0.000000	9.798363	-14.418197	19.284844	8.325264	-11.912803	-54.301288	76.386969	74.546018	-3.738089	21.380089	-16.284649	-6.077390	-34.853408	114.208344	40.464820	-25.147311	0.632273
7.400000	2.246640	-4.609693	98.112207	0.166547	0.508875	0.989685	5.515159	2.552308	-14.921800	15.423902	0.269198	42.521887	15.195233	0.000000	3.544796	-0.284794	-3.105061	11.035855	0.192612	40.151249	4.749826	0.000000	-0.067353	0.681820	-0.729835	-0.125081	0.906820	-0.775450	-0.110654	1.657777	-0.775450	-0.076978	1.657777	-0.638606	-0.062544	1.390367	-0.592991	-0.038485	1.056139	-0.547377	-0.481096	7.712882	-4.059126	0.000000	0.000000	9.866771	-14.548500	19.421404	8.393891	-12.046410	-54.311607	76.111643	71.695035	-3.782200	20.963041	-15.830190	-6.006328	-34.953423	113.925152	43.291148	-25.378011	2.602264
7.416667	2.235108	-4.569488	98.134207	0.166434	0.509016	0.989786	5.479424	2.535631	-14.930288	15.449941	0.269652	42.501604	15.139848	0.000000	3.497757	-0.260523	-2.961009	11.002388	0.192028	40.223373	4.738673	0.000000	-0.064850	0.684196	-0.703196	-0.120433	0.909980	-0.747146	-0.106542	1.663554	-0.747146	-0.074117	1.663554	-0.615296	-0.060220	1.395212	-0.571347	-0.037055	1.059819	-0.527397	-0.463217	7.739760	-3.910965	0.000000	0.000000	9.852471	-14.601146	19.575057	8.461494	-12.179473	-54.265771	75.873820	69.374588	-3.915579	20.448905	-15.464582	-5.943874	-35.054368	113.699793	45.824018	-25.493037	4.271467
7.433333	2.226328	-4.544303	98.159890	0.166342	0.509091	0.989870	5.456280	2.518863	-14.945020	15.480345	0.270183	42.481754	15.084349	0.000000	3.465151	-0.238090	-2.815351	10.976762	0.191581	40.312562	4.734090	0.000000	-0.060328	0.685769	-0.685263	-0.112034	0.912073	-0.728092	-0.099112	1.667379	-0.728092	-0.068948	1.667379	-0.599605	-0.056020	1.398420	-0.556776	-0.034471	1.062256	-0.513947	-0.430913	7.757557	-3.811228	0.000000	0.000000	9.839436	-14.599078	19.799783	8.539652	-12.300952	-54.186832	75.671436	67.565079	-4.004994	19.923197	-15.203253	-5.905997	-35.178155	113.548714	48.263423	-25.614446	5.788943
